<svg width="136" height="56" viewBox="0 0 136 56" fill="none" xmlns="http://www.w3.org/2000/svg">
<path d="M62.5809 49.8348H32.1694V56H62.5809V49.8348Z" fill="#FF0000"/>
<path d="M121.696 0C124.08 4.14155e-06 126.329 0.31511 128.443 0.945434C130.602 1.57576 132.469 2.43119 134.043 3.51175L133.639 11.6161H132.964L130.198 6.55087C129.433 4.97505 128.668 3.87208 127.904 3.24176C127.139 2.56641 126.262 2.09365 125.272 1.82351C124.687 1.64342 124.148 1.53081 123.653 1.48579C123.158 1.39575 122.528 1.3507 121.764 1.3507C119.47 1.3507 117.536 2.02614 115.961 3.37685C114.387 4.68252 113.6 6.46095 113.6 8.71211C113.6 11.0083 114.207 12.8543 115.421 14.25C116.636 15.6007 118.413 16.8163 120.752 17.8968L123.855 19.2475C128.173 21.1385 131.277 23.1647 133.166 25.3258C135.056 27.4419 136 30.1884 136 33.5651C136 37.5271 134.493 40.7689 131.48 43.2902C128.511 45.7665 124.283 47.0045 118.795 47.0045C116.321 47.0045 113.802 46.6894 111.238 46.0591C108.674 45.4738 106.538 44.6858 104.829 43.6952L105.166 34.5105H105.841L107.932 38.9003C108.562 40.1609 109.237 41.2865 109.956 42.277C110.676 43.2225 111.666 43.9655 112.925 44.5058C113.825 44.956 114.679 45.2711 115.489 45.4512C116.344 45.5863 117.288 45.6538 118.323 45.6538C121.066 45.6538 123.226 44.911 124.8 43.4253C126.419 41.9395 127.229 40.0259 127.229 37.6847C127.229 35.4786 126.689 33.7677 125.61 32.5521C124.53 31.2914 122.798 30.0757 120.414 28.9051L117.648 27.6895C113.78 25.9786 110.743 24.02 108.539 21.8138C106.38 19.5627 105.301 16.5912 105.301 12.8993C105.301 10.2429 105.976 7.9467 107.325 6.0107C108.719 4.0747 110.631 2.58887 113.06 1.55333C115.534 0.517793 118.413 0 121.696 0ZM34.3426 31.8091V6.34824C34.3426 5.4478 34.1853 4.63737 33.8704 3.91701C33.6006 3.19664 33.0157 2.72389 32.1162 2.49877L29.8895 1.89106V1.21561H39.5378V1.89106L37.7162 2.49877C36.9066 2.7689 36.4118 3.24168 36.2319 3.91701C36.052 4.59234 35.962 5.38026 35.9619 6.28069V45.9916H32.1836L6.40966 10.5354V40.7914C6.40967 41.6918 6.54466 42.4572 6.81454 43.0875C7.08443 43.7179 7.64673 44.1681 8.50135 44.4382L10.5254 45.1135V45.7889H0.26992V45.1135L2.49638 44.4382C3.30603 44.2131 3.89083 43.7854 4.25068 43.1551C4.61051 42.4797 4.7905 41.6918 4.79052 40.7914V8.30684C4.29573 7.22627 3.89074 6.4159 3.57588 5.87562C3.306 5.33534 2.99118 4.8851 2.63134 4.52491C2.2715 4.1197 1.7767 3.62443 1.14697 3.03912L0 1.89106V1.21561H11.9423L34.3426 31.8091ZM60.1382 1.89106L58.7213 2.43122C57.6868 2.83643 56.9895 3.33172 56.6296 3.91701C56.2698 4.5023 56.2473 5.31273 56.5621 6.34824L63.9165 34.443L71.878 10.8732L70.3262 6.07825C70.0113 5.13275 69.719 4.41227 69.4491 3.91701C69.1793 3.42177 68.7294 3.01656 68.0997 2.7014L66.6153 1.89106V1.21561H83.5506V1.89106L81.4589 2.7014C80.5593 3.01657 80.042 3.48932 79.907 4.11965C79.8171 4.70494 79.9296 5.47032 80.2444 6.41578L88.8133 35.1184L96.9097 6.95614C97.2246 5.87558 97.3371 4.93007 97.2471 4.11965C97.1572 3.30922 96.5949 2.72387 95.5603 2.36368L94.1434 1.89106V1.21561H103.522V1.89106L101.768 2.56631C100.868 2.88148 100.238 3.37678 99.8785 4.0521C99.5186 4.72745 99.2036 5.56036 98.9337 6.55087L87.7338 45.9916H83.0782L72.9575 14.25L62.5671 45.9916H57.9116L45.9693 5.80807C45.6544 4.77253 45.3169 4.02953 44.9571 3.57929C44.5972 3.08407 43.9676 2.63378 43.068 2.22859L42.2583 1.89106V1.21561H60.1382V1.89106Z" fill="black"/>
</svg>
