<svg width="136" height="74" viewBox="0 0 136 74" fill="none" xmlns="http://www.w3.org/2000/svg">
<path d="M62.5809 49.8348H32.1694V56H62.5809V49.8348Z" fill="#FF0000"/>
<path d="M121.696 0C124.08 4.14155e-06 126.329 0.31511 128.443 0.945434C130.602 1.57576 132.469 2.43119 134.043 3.51175L133.639 11.6161H132.964L130.198 6.55087C129.433 4.97505 128.668 3.87208 127.904 3.24176C127.139 2.56641 126.262 2.09365 125.272 1.82351C124.687 1.64342 124.148 1.53081 123.653 1.48579C123.158 1.39575 122.528 1.3507 121.764 1.3507C119.47 1.3507 117.536 2.02614 115.961 3.37685C114.387 4.68252 113.6 6.46095 113.6 8.71211C113.6 11.0083 114.207 12.8543 115.421 14.25C116.636 15.6007 118.413 16.8163 120.752 17.8968L123.855 19.2475C128.173 21.1385 131.277 23.1647 133.166 25.3258C135.056 27.4419 136 30.1884 136 33.5651C136 37.5271 134.493 40.7689 131.48 43.2902C128.511 45.7665 124.283 47.0045 118.795 47.0045C116.321 47.0045 113.802 46.6894 111.238 46.0591C108.674 45.4738 106.538 44.6858 104.829 43.6952L105.166 34.5105H105.841L107.932 38.9003C108.562 40.1609 109.237 41.2865 109.956 42.277C110.676 43.2225 111.666 43.9655 112.925 44.5058C113.825 44.956 114.679 45.2711 115.489 45.4512C116.344 45.5863 117.288 45.6538 118.323 45.6538C121.066 45.6538 123.226 44.911 124.8 43.4253C126.419 41.9395 127.229 40.0259 127.229 37.6847C127.229 35.4786 126.689 33.7677 125.61 32.5521C124.53 31.2914 122.798 30.0757 120.414 28.9051L117.648 27.6895C113.78 25.9786 110.743 24.02 108.539 21.8138C106.38 19.5627 105.301 16.5912 105.301 12.8993C105.301 10.2429 105.976 7.9467 107.325 6.0107C108.719 4.0747 110.631 2.58887 113.06 1.55333C115.534 0.517793 118.413 0 121.696 0ZM34.3426 31.8091V6.34824C34.3426 5.4478 34.1853 4.63737 33.8704 3.91701C33.6006 3.19664 33.0157 2.72389 32.1162 2.49877L29.8895 1.89106V1.21561H39.5378V1.89106L37.7162 2.49877C36.9066 2.7689 36.4118 3.24168 36.2319 3.91701C36.052 4.59234 35.962 5.38026 35.9619 6.28069V45.9916H32.1836L6.40966 10.5354V40.7914C6.40967 41.6918 6.54466 42.4572 6.81454 43.0875C7.08443 43.7179 7.64673 44.1681 8.50135 44.4382L10.5254 45.1135V45.7889H0.26992V45.1135L2.49638 44.4382C3.30603 44.2131 3.89083 43.7854 4.25068 43.1551C4.61051 42.4797 4.7905 41.6918 4.79052 40.7914V8.30684C4.29573 7.22627 3.89074 6.4159 3.57588 5.87562C3.306 5.33534 2.99118 4.8851 2.63134 4.52491C2.2715 4.1197 1.7767 3.62443 1.14697 3.03912L0 1.89106V1.21561H11.9423L34.3426 31.8091ZM60.1382 1.89106L58.7213 2.43122C57.6868 2.83643 56.9895 3.33172 56.6296 3.91701C56.2698 4.5023 56.2473 5.31273 56.5621 6.34824L63.9165 34.443L71.878 10.8732L70.3262 6.07825C70.0113 5.13275 69.719 4.41227 69.4491 3.91701C69.1793 3.42177 68.7294 3.01656 68.0997 2.7014L66.6153 1.89106V1.21561H83.5506V1.89106L81.4589 2.7014C80.5593 3.01657 80.042 3.48932 79.907 4.11965C79.8171 4.70494 79.9296 5.47032 80.2444 6.41578L88.8133 35.1184L96.9097 6.95614C97.2246 5.87558 97.3371 4.93007 97.2471 4.11965C97.1572 3.30922 96.5949 2.72387 95.5603 2.36368L94.1434 1.89106V1.21561H103.522V1.89106L101.768 2.56631C100.868 2.88148 100.238 3.37678 99.8785 4.0521C99.5186 4.72745 99.2036 5.56036 98.9337 6.55087L87.7338 45.9916H83.0782L72.9575 14.25L62.5671 45.9916H57.9116L45.9693 5.80807C45.6544 4.77253 45.3169 4.02953 44.9571 3.57929C44.5972 3.08407 43.9676 2.63378 43.068 2.22859L42.2583 1.89106V1.21561H60.1382V1.89106Z" fill="black"/>
<path d="M3.9532 70.2898C4.1944 70.3166 4.4222 70.3613 4.6366 70.4238C4.851 70.4774 5.052 70.5399 5.2396 70.6114V71H1.568V70.6114C1.74666 70.5221 1.9298 70.4551 2.1174 70.4104C2.305 70.3657 2.48813 70.3255 2.6668 70.2898V62.3436C2.46133 62.3079 2.26926 62.2632 2.0906 62.2096C1.91193 62.1471 1.73773 62.0801 1.568 62.0086V61.62H2.774C3.13133 61.62 3.51993 61.6021 3.9398 61.5664C4.35966 61.5307 4.76166 61.5128 5.1458 61.5128C5.58353 61.5128 6.01233 61.5619 6.4322 61.6602C6.85206 61.7495 7.2228 61.9059 7.5444 62.1292C7.87493 62.3525 8.13846 62.6518 8.335 63.027C8.54046 63.3933 8.6432 63.8533 8.6432 64.4072C8.6432 64.9343 8.54046 65.3854 8.335 65.7606C8.12953 66.1358 7.8526 66.444 7.5042 66.6852C7.16473 66.9264 6.77613 67.1051 6.3384 67.2212C5.90066 67.3284 5.44953 67.382 4.985 67.382C4.94033 67.382 4.86886 67.382 4.7706 67.382C4.68126 67.382 4.583 67.382 4.4758 67.382C4.3686 67.3731 4.26586 67.3641 4.1676 67.3552C4.06933 67.3463 3.99786 67.3373 3.9532 67.3284V70.2898ZM4.8644 62.2096C4.65 62.2096 4.4758 62.2141 4.3418 62.223C4.2078 62.2319 4.07826 62.2498 3.9532 62.2766V66.6182C3.99786 66.6361 4.0604 66.6495 4.1408 66.6584C4.23013 66.6584 4.31946 66.6629 4.4088 66.6718C4.50706 66.6807 4.60086 66.6852 4.6902 66.6852C4.77953 66.6852 4.851 66.6852 4.9046 66.6852C5.21726 66.6852 5.51206 66.645 5.789 66.5646C6.06593 66.4753 6.30713 66.3368 6.5126 66.1492C6.727 65.9616 6.89673 65.7249 7.0218 65.439C7.14686 65.1531 7.2094 64.8092 7.2094 64.4072C7.2094 63.6747 6.99946 63.1253 6.5796 62.759C6.16866 62.3927 5.59693 62.2096 4.8644 62.2096ZM9.30556 67.65C9.30556 67.0872 9.37702 66.5914 9.51996 66.1626C9.67182 65.7249 9.88622 65.3586 10.1632 65.0638C10.4401 64.7601 10.7706 64.5323 11.1548 64.3804C11.5478 64.2196 11.9811 64.1392 12.4546 64.1392C13.0084 64.1392 13.4864 64.2241 13.8884 64.3938C14.2904 64.5635 14.6164 64.8047 14.8666 65.1174C15.1256 65.4211 15.3132 65.7874 15.4294 66.2162C15.5544 66.645 15.617 67.1229 15.617 67.65C15.617 68.7756 15.3311 69.6421 14.7594 70.2496C14.1876 70.8571 13.4194 71.1608 12.4546 71.1608C11.9186 71.1608 11.454 71.0804 11.061 70.9196C10.6679 70.7499 10.3418 70.5131 10.0828 70.2094C9.82369 69.8967 9.62716 69.526 9.49316 69.0972C9.36809 68.6595 9.30556 68.1771 9.30556 67.65ZM10.592 67.65C10.592 68.052 10.6277 68.4317 10.6992 68.789C10.7796 69.1463 10.9002 69.459 11.061 69.727C11.2307 69.9861 11.4496 70.1915 11.7176 70.3434C11.9856 70.4953 12.3072 70.5712 12.6824 70.5712C13.1648 70.5712 13.5578 70.3345 13.8616 69.861C14.1742 69.3875 14.3306 68.6505 14.3306 67.65C14.3306 67.2391 14.2904 66.8594 14.21 66.511C14.1385 66.1537 14.0224 65.8455 13.8616 65.5864C13.7008 65.3184 13.4953 65.1085 13.2452 64.9566C12.995 64.8047 12.6958 64.7288 12.3474 64.7288C11.8203 64.7288 11.396 64.9655 11.0744 65.439C10.7528 65.9125 10.592 66.6495 10.592 67.65ZM18.6858 71.1608L16.582 64.97C16.4569 64.9253 16.3318 64.8807 16.2068 64.836C16.0906 64.7824 15.979 64.7199 15.8718 64.6484V64.3H18.659V64.635C18.5339 64.7065 18.4088 64.7735 18.2838 64.836C18.1587 64.8896 18.0292 64.9343 17.8952 64.97L19.061 68.8828L19.2352 69.8476H19.262L19.463 68.856L20.9102 64.434L21.3122 64.3L22.8532 68.8694L23.0944 69.8476H23.1212L23.3222 68.8694L24.354 64.97C24.2557 64.9521 24.1396 64.9164 24.0056 64.8628C23.8805 64.8092 23.751 64.7377 23.617 64.6484V64.3H25.895V64.6484C25.7074 64.7735 25.4528 64.8807 25.1312 64.97L23.2284 71L22.5182 71.1608L21.1916 67.3686L20.937 66.2564H20.8968L20.5886 67.3686L19.3826 71L18.6858 71.1608ZM31.5742 70.062C31.5027 70.2139 31.391 70.3568 31.2392 70.4908C31.0873 70.6248 30.9131 70.7409 30.7166 70.8392C30.52 70.9375 30.3056 71.0134 30.0734 71.067C29.8411 71.1295 29.6044 71.1608 29.3632 71.1608C28.8361 71.1608 28.3716 71.0804 27.9696 70.9196C27.5676 70.7499 27.2326 70.5131 26.9646 70.2094C26.6966 69.8967 26.4911 69.526 26.3482 69.0972C26.2142 68.6684 26.1472 68.186 26.1472 67.65C26.1472 66.5065 26.4107 65.6355 26.9378 65.037C27.4648 64.4385 28.2108 64.1392 29.1756 64.1392C29.4882 64.1392 29.7964 64.1839 30.1002 64.2732C30.4039 64.3536 30.6719 64.4921 30.9042 64.6886C31.1454 64.8851 31.3374 65.1487 31.4804 65.4792C31.6322 65.8008 31.7082 66.2028 31.7082 66.6852C31.7082 66.8371 31.6992 66.9934 31.6814 67.1542C31.6724 67.3061 31.6501 67.4713 31.6144 67.65H27.4336C27.4336 68.0252 27.4782 68.3781 27.5676 68.7086C27.6658 69.0302 27.8088 69.3116 27.9964 69.5528C28.184 69.794 28.4207 69.9861 28.7066 70.129C28.9924 70.263 29.3274 70.33 29.7116 70.33C30.0242 70.33 30.3414 70.2853 30.663 70.196C30.9846 70.1067 31.2258 69.9905 31.3866 69.8476L31.5742 70.062ZM29.122 64.7288C28.6128 64.7288 28.2242 64.903 27.9562 65.2514C27.6882 65.5909 27.5274 66.1939 27.4738 67.0604H30.4218C30.4307 66.98 30.4352 66.9041 30.4352 66.8326C30.4441 66.7522 30.4486 66.6763 30.4486 66.6048C30.4486 66.0331 30.3414 65.5775 30.127 65.238C29.9126 64.8985 29.5776 64.7288 29.122 64.7288ZM35.6066 65.305C35.5083 65.3586 35.3833 65.4703 35.2314 65.64C35.0885 65.8008 34.9589 66.042 34.8428 66.3636V70.3434C35.0215 70.3613 35.2001 70.397 35.3788 70.4506C35.5575 70.4953 35.7361 70.5667 35.9148 70.665V71H32.7524V70.665C32.9132 70.5757 33.0651 70.5087 33.208 70.464C33.3509 70.4193 33.4939 70.3791 33.6368 70.3434V65.0772L32.7524 64.97V64.6216C33.0383 64.4965 33.3331 64.3983 33.6368 64.3268C33.9405 64.2464 34.2309 64.1839 34.5078 64.1392H34.8428V65.5596H34.8964C34.9768 65.3809 35.0885 65.2023 35.2314 65.0236C35.3833 64.8449 35.553 64.6841 35.7406 64.5412C35.9371 64.3983 36.1471 64.2911 36.3704 64.2196C36.6027 64.1392 36.8394 64.1124 37.0806 64.1392C37.1431 64.2553 37.1967 64.3849 37.2414 64.5278C37.295 64.6618 37.3441 64.8047 37.3888 64.9566V65.305H35.6066ZM43.4562 70.062C43.3847 70.2139 43.2731 70.3568 43.1212 70.4908C42.9693 70.6248 42.7951 70.7409 42.5986 70.8392C42.4021 70.9375 42.1877 71.0134 41.9554 71.067C41.7231 71.1295 41.4864 71.1608 41.2452 71.1608C40.7181 71.1608 40.2536 71.0804 39.8516 70.9196C39.4496 70.7499 39.1146 70.5131 38.8466 70.2094C38.5786 69.8967 38.3731 69.526 38.2302 69.0972C38.0962 68.6684 38.0292 68.186 38.0292 67.65C38.0292 66.5065 38.2927 65.6355 38.8198 65.037C39.3469 64.4385 40.0928 64.1392 41.0576 64.1392C41.3703 64.1392 41.6785 64.1839 41.9822 64.2732C42.2859 64.3536 42.5539 64.4921 42.7862 64.6886C43.0274 64.8851 43.2195 65.1487 43.3624 65.4792C43.5143 65.8008 43.5902 66.2028 43.5902 66.6852C43.5902 66.8371 43.5813 66.9934 43.5634 67.1542C43.5545 67.3061 43.5321 67.4713 43.4964 67.65H39.3156C39.3156 68.0252 39.3603 68.3781 39.4496 68.7086C39.5479 69.0302 39.6908 69.3116 39.8784 69.5528C40.066 69.794 40.3027 69.9861 40.5886 70.129C40.8745 70.263 41.2095 70.33 41.5936 70.33C41.9063 70.33 42.2234 70.2853 42.545 70.196C42.8666 70.1067 43.1078 69.9905 43.2686 69.8476L43.4562 70.062ZM41.004 64.7288C40.4948 64.7288 40.1062 64.903 39.8382 65.2514C39.5702 65.5909 39.4094 66.1939 39.3558 67.0604H42.3038C42.3127 66.98 42.3172 66.9041 42.3172 66.8326C42.3261 66.7522 42.3306 66.6763 42.3306 66.6048C42.3306 66.0331 42.2234 65.5775 42.009 65.238C41.7946 64.8985 41.4596 64.7288 41.004 64.7288ZM49.2172 69.6734C49.1726 69.8699 49.0966 70.0575 48.9894 70.2362C48.8822 70.4149 48.7482 70.5757 48.5874 70.7186C48.4356 70.8526 48.2569 70.9598 48.0514 71.0402C47.8549 71.1206 47.6405 71.1608 47.4082 71.1608C46.5238 71.1608 45.8628 70.8794 45.425 70.3166C44.9873 69.7538 44.7684 68.8783 44.7684 67.6902C44.7684 66.5467 45.0454 65.6757 45.5992 65.0772C46.162 64.4787 46.9169 64.1794 47.8638 64.1794C48.1944 64.1794 48.4534 64.1973 48.641 64.233C48.8286 64.2598 49.0341 64.3134 49.2574 64.3938V61.8612L48.239 61.754V61.4056C48.4981 61.2984 48.7974 61.2046 49.1368 61.1242C49.4852 61.0438 49.8158 60.9768 50.1284 60.9232H50.4634V70.2362L51.3478 70.3434V70.6248C51.0888 70.7499 50.8208 70.8571 50.5438 70.9464C50.2669 71.0357 49.9944 71.0983 49.7264 71.134H49.3914L49.2708 69.6734H49.2172ZM47.6762 70.33C48.114 70.33 48.4624 70.1915 48.7214 69.9146C48.9805 69.6377 49.1592 69.2625 49.2574 68.789V65.0102C49.1056 64.9209 48.9269 64.8583 48.7214 64.8226C48.516 64.7869 48.2524 64.769 47.9308 64.769C47.3234 64.769 46.8588 65.037 46.5372 65.573C46.2156 66.1001 46.0548 66.8058 46.0548 67.6902C46.0548 68.0565 46.0861 68.4004 46.1486 68.722C46.2112 69.0347 46.3094 69.3116 46.4434 69.5528C46.5774 69.794 46.7427 69.9861 46.9392 70.129C47.1447 70.263 47.3904 70.33 47.6762 70.33ZM55.9421 61.8612L54.9237 61.754V61.4056C55.2006 61.2895 55.5088 61.1957 55.8483 61.1242C56.1967 61.0527 56.5183 60.9857 56.8131 60.9232H57.1481V65.6266H57.1749C57.3267 65.171 57.5813 64.8092 57.9387 64.5412C58.3049 64.2732 58.7069 64.1392 59.1447 64.1392C59.9576 64.1392 60.5785 64.4161 61.0073 64.97C61.445 65.5239 61.6639 66.377 61.6639 67.5294C61.6639 68.7086 61.3646 69.6019 60.7661 70.2094C60.1765 70.8169 59.3233 71.1206 58.2067 71.1206C57.9833 71.1206 57.76 71.1027 57.5367 71.067C57.3133 71.0402 57.0989 71.0045 56.8935 70.9598C56.688 70.9151 56.5004 70.8615 56.3307 70.799C56.1699 70.7365 56.0403 70.6739 55.9421 70.6114V61.8612ZM58.7829 64.97C58.3541 64.97 58.0057 65.1174 57.7377 65.4122C57.4697 65.6981 57.2731 66.0643 57.1481 66.511V70.2496C57.3089 70.3389 57.5054 70.4104 57.7377 70.464C57.9699 70.5087 58.2156 70.531 58.4747 70.531C59.0643 70.531 59.5288 70.2764 59.8683 69.7672C60.2077 69.2491 60.3775 68.5031 60.3775 67.5294C60.3775 67.181 60.3462 66.8505 60.2837 66.5378C60.2301 66.2251 60.1363 65.9527 60.0023 65.7204C59.8772 65.4881 59.7119 65.305 59.5065 65.171C59.3099 65.037 59.0687 64.97 58.7829 64.97ZM62.5395 64.97C62.4055 64.9343 62.2804 64.8896 62.1643 64.836C62.0571 64.7824 61.9454 64.7199 61.8293 64.6484V64.3H64.6299V64.635C64.4423 64.7601 64.1877 64.8717 63.8661 64.97L65.5813 68.9364L65.8359 69.7672H65.8627L66.0637 68.923L67.3367 64.97C67.0687 64.9164 66.823 64.8092 66.5997 64.6484V64.3H68.8911V64.6484C68.7035 64.7735 68.4489 64.8807 68.1273 64.97L66.0369 71C65.8225 71.5717 65.617 72.0318 65.4205 72.3802C65.2329 72.7375 65.0408 73.0189 64.8443 73.2244C64.6567 73.4299 64.4601 73.5773 64.2547 73.6666C64.0581 73.7649 63.8437 73.8363 63.6115 73.881C63.5132 73.7113 63.4239 73.5237 63.3435 73.3182C63.272 73.1127 63.2095 72.9162 63.1559 72.7286L63.3301 72.407H64.7237C64.7773 72.3355 64.8219 72.2641 64.8577 72.1926C64.9023 72.1301 64.947 72.0497 64.9917 71.9514C65.0363 71.8531 65.0855 71.7281 65.1391 71.5762C65.1927 71.4243 65.2552 71.2323 65.3267 71L62.5395 64.97ZM78.5263 61.62H81.4207V62.0086C81.0455 62.2587 80.6792 62.4374 80.3219 62.5446V71.1608H79.5581L74.6939 63.7774L74.1713 62.7322H74.1311L74.2517 63.7774V70.1424C74.618 70.2407 74.9619 70.397 75.2835 70.6114V71H72.3891V70.6114C72.5499 70.5131 72.7196 70.4283 72.8983 70.3568C73.0859 70.2764 73.2824 70.2049 73.4879 70.1424V62.4642C73.3092 62.3927 73.1306 62.3168 72.9519 62.2364C72.7822 62.156 72.6214 62.0756 72.4695 61.9952V61.62H74.7341L78.9551 67.985L79.5715 69.1374H79.6251L79.5581 67.985V62.5446C79.3705 62.4642 79.1874 62.3793 79.0087 62.29C78.839 62.2007 78.6782 62.1069 78.5263 62.0086V61.62ZM92.4813 62.3436C92.2937 62.3168 92.1061 62.2766 91.9185 62.223C91.7309 62.1605 91.5344 62.089 91.3289 62.0086V61.62H94.3305V62.0086C94.0268 62.1426 93.7052 62.2543 93.3657 62.3436L91.1279 71L90.2971 71.1608L88.1397 63.8712L86.0225 71L85.2051 71.1608L82.8333 62.3436C82.6547 62.2989 82.4805 62.2498 82.3107 62.1962C82.141 62.1426 81.9757 62.0801 81.8149 62.0086V61.62H85.2989V62.0086C85.1292 62.0711 84.955 62.1337 84.7763 62.1962C84.5977 62.2498 84.4056 62.2989 84.2001 62.3436L85.5267 67.7438L85.8215 69.4858H85.8483L86.3173 67.717L88.1263 61.62H88.5819L90.5249 67.717L90.9135 69.459H90.9403L91.2485 67.6902L92.4813 62.3436ZM96.3351 70.0754C96.4423 70.1826 96.5808 70.2764 96.7505 70.3568C96.9202 70.4283 97.1748 70.464 97.5143 70.464C97.8002 70.464 98.0682 70.4283 98.3183 70.3568C98.5684 70.2764 98.7828 70.1647 98.9615 70.0218C99.1491 69.8699 99.2965 69.6913 99.4037 69.4858C99.5109 69.2714 99.5645 69.0302 99.5645 68.7622C99.5645 68.4049 99.4528 68.1056 99.2295 67.8644C99.0151 67.6232 98.7426 67.4088 98.4121 67.2212C98.0905 67.0336 97.7376 66.8505 97.3535 66.6718C96.9694 66.4931 96.612 66.2832 96.2815 66.042C95.9599 65.7919 95.6874 65.4971 95.4641 65.1576C95.2497 64.8092 95.1425 64.3759 95.1425 63.8578C95.1425 63.4826 95.2095 63.1476 95.3435 62.8528C95.4775 62.558 95.6651 62.3079 95.9063 62.1024C96.1564 61.8969 96.4512 61.7406 96.7907 61.6334C97.1302 61.5173 97.5098 61.4592 97.9297 61.4592C98.4746 61.4592 98.9704 61.5039 99.4171 61.5932C99.8727 61.6736 100.23 61.7763 100.489 61.9014C100.489 62.0533 100.476 62.2319 100.449 62.4374C100.431 62.6339 100.404 62.8394 100.368 63.0538C100.342 63.2682 100.31 63.4781 100.275 63.6836C100.239 63.8801 100.203 64.0543 100.167 64.2062H99.8191L99.2831 62.3704C99.1223 62.2989 98.9168 62.2453 98.6667 62.2096C98.4255 62.1739 98.1664 62.156 97.8895 62.156C97.4339 62.156 97.0676 62.2855 96.7907 62.5446C96.5138 62.7947 96.3753 63.1476 96.3753 63.6032C96.3753 63.9695 96.4825 64.2777 96.6969 64.5278C96.9202 64.7779 97.1972 65.0013 97.5277 65.1978C97.8582 65.3943 98.2111 65.5864 98.5863 65.774C98.9704 65.9527 99.3278 66.1626 99.6583 66.4038C99.9888 66.645 100.261 66.9309 100.476 67.2614C100.699 67.5919 100.811 68.0029 100.811 68.4942C100.811 68.8962 100.735 69.2625 100.583 69.593C100.44 69.9235 100.23 70.2049 99.9531 70.4372C99.6762 70.6695 99.3367 70.8481 98.9347 70.9732C98.5327 71.0983 98.0771 71.1608 97.5679 71.1608C97.0051 71.1608 96.5004 71.0938 96.0537 70.9598C95.607 70.8258 95.2899 70.6829 95.1023 70.531C95.1112 70.3791 95.1246 70.196 95.1425 69.9816C95.1693 69.7672 95.1961 69.5483 95.2229 69.325C95.2586 69.0927 95.2944 68.8694 95.3301 68.655C95.3658 68.4406 95.4016 68.2575 95.4373 68.1056H95.7857L96.3351 70.0754ZM107.407 70.2898C107.801 70.3434 108.185 70.4506 108.56 70.6114V71H105.156V70.6114C105.308 70.5399 105.464 70.4774 105.625 70.4238C105.786 70.3702 105.951 70.3255 106.121 70.2898V62.3436C105.925 62.2989 105.746 62.2498 105.585 62.1962C105.424 62.1337 105.281 62.0711 105.156 62.0086V61.62H111.441C111.432 61.9684 111.414 62.3257 111.387 62.692C111.369 63.0583 111.338 63.4245 111.293 63.7908H110.945L110.396 62.3168H107.407V66.1358H109.726L110.275 65.1442H110.583C110.601 65.3497 110.615 65.5685 110.623 65.8008C110.632 66.0241 110.637 66.2519 110.637 66.4842C110.637 66.7254 110.632 66.9621 110.623 67.1944C110.615 67.4267 110.601 67.6455 110.583 67.851H110.275L109.726 66.8192H107.407V70.2898ZM117.551 69.2446C117.551 69.4411 117.555 69.6109 117.564 69.7538C117.573 69.8967 117.582 70.0486 117.591 70.2094L118.515 70.3434V70.6248C118.292 70.7409 118.042 70.8437 117.765 70.933C117.497 71.0223 117.238 71.0893 116.988 71.134H116.653C116.563 70.9285 116.51 70.7052 116.492 70.464C116.474 70.2139 116.461 69.9414 116.452 69.6466H116.385C116.349 69.8253 116.278 70.0084 116.17 70.196C116.072 70.3747 115.938 70.5355 115.768 70.6784C115.608 70.8213 115.415 70.9375 115.192 71.0268C114.969 71.1161 114.714 71.1608 114.428 71.1608C113.883 71.1608 113.437 70.9955 113.088 70.665C112.749 70.3345 112.579 69.9012 112.579 69.3652C112.579 68.9543 112.66 68.6193 112.82 68.3602C112.99 68.0922 113.236 67.8823 113.557 67.7304C113.879 67.5785 114.276 67.4713 114.75 67.4088C115.223 67.3373 115.773 67.2837 116.398 67.248C116.434 66.8639 116.443 66.5199 116.425 66.2162C116.416 65.9035 116.367 65.64 116.278 65.4256C116.197 65.2023 116.072 65.0325 115.902 64.9164C115.742 64.7913 115.527 64.7288 115.259 64.7288C115.134 64.7288 114.991 64.7377 114.83 64.7556C114.678 64.7645 114.527 64.8003 114.375 64.8628L113.745 66.4708H113.397C113.307 66.2028 113.227 65.9259 113.155 65.64C113.093 65.3541 113.053 65.0727 113.035 64.7958C113.374 64.5903 113.749 64.4295 114.16 64.3134C114.58 64.1973 115.045 64.1392 115.554 64.1392C116.01 64.1392 116.371 64.2062 116.639 64.3402C116.916 64.4653 117.126 64.6305 117.269 64.836C117.412 65.0415 117.506 65.2693 117.551 65.5194C117.595 65.7695 117.618 66.0197 117.618 66.2698C117.618 66.8058 117.604 67.3239 117.577 67.8242C117.559 68.3155 117.551 68.789 117.551 69.2446ZM114.964 70.33C115.188 70.33 115.384 70.2853 115.554 70.196C115.724 70.1067 115.867 69.9995 115.983 69.8744C116.099 69.7493 116.193 69.6243 116.264 69.4992C116.336 69.3652 116.385 69.2535 116.412 69.1642V67.7572C115.893 67.7572 115.469 67.784 115.139 67.8376C114.808 67.8912 114.549 67.9761 114.361 68.0922C114.174 68.2083 114.044 68.3557 113.973 68.5344C113.901 68.7041 113.866 68.9007 113.866 69.124C113.866 69.5081 113.964 69.8074 114.16 70.0218C114.357 70.2273 114.625 70.33 114.964 70.33ZM124.544 70.062C124.383 70.3747 124.119 70.6382 123.753 70.8526C123.396 71.0581 122.976 71.1608 122.494 71.1608C121.967 71.1608 121.506 71.0804 121.113 70.9196C120.729 70.7499 120.408 70.5131 120.149 70.2094C119.89 69.8967 119.693 69.526 119.559 69.0972C119.434 68.6595 119.371 68.1771 119.371 67.65C119.371 66.5155 119.648 65.6489 120.202 65.0504C120.756 64.4429 121.511 64.1392 122.467 64.1392C122.905 64.1392 123.293 64.1794 123.633 64.2598C123.981 64.3313 124.276 64.4295 124.517 64.5546C124.49 64.8494 124.441 65.1799 124.37 65.5462C124.298 65.9125 124.209 66.2162 124.102 66.4574H123.74L123.177 64.8628C123.114 64.8181 123.043 64.7869 122.963 64.769C122.882 64.7422 122.748 64.7288 122.561 64.7288C121.953 64.7288 121.484 64.9521 121.154 65.3988C120.823 65.8365 120.658 66.5825 120.658 67.6366C120.658 67.9761 120.702 68.3066 120.792 68.6282C120.89 68.9498 121.033 69.2401 121.221 69.4992C121.417 69.7493 121.658 69.9503 121.944 70.1022C122.239 70.2541 122.578 70.33 122.963 70.33C123.275 70.33 123.548 70.2853 123.78 70.196C124.012 70.1067 124.209 69.9995 124.37 69.8744L124.544 70.062ZM125.252 64.6216C125.591 64.4072 125.949 64.2553 126.324 64.166V63.027C126.44 62.9287 126.574 62.8439 126.726 62.7724C126.887 62.692 127.043 62.6161 127.195 62.5446H127.53V64.3H129.54V64.97H127.53V68.856C127.53 69.392 127.615 69.7717 127.784 69.995C127.954 70.2183 128.209 70.33 128.548 70.33C128.709 70.33 128.91 70.3211 129.151 70.3032C129.392 70.2764 129.598 70.2317 129.768 70.1692L129.861 70.3702C129.79 70.4506 129.687 70.5355 129.553 70.6248C129.428 70.7141 129.281 70.799 129.111 70.8794C128.95 70.9598 128.772 71.0268 128.575 71.0804C128.379 71.134 128.178 71.1608 127.972 71.1608C127.436 71.1608 127.025 71.0089 126.739 70.7052C126.462 70.4015 126.324 69.9101 126.324 69.2312V64.97H125.252V64.6216ZM133.977 69.4724C133.977 69.2223 133.896 69.0123 133.735 68.8426C133.583 68.6639 133.387 68.4987 133.146 68.3468C132.905 68.1949 132.645 68.0475 132.369 67.9046C132.101 67.7617 131.846 67.5964 131.605 67.4088C131.364 67.2123 131.163 66.9889 131.002 66.7388C130.85 66.4887 130.774 66.1805 130.774 65.8142C130.774 65.573 130.828 65.3497 130.935 65.1442C131.051 64.9387 131.203 64.7645 131.39 64.6216C131.578 64.4697 131.797 64.3536 132.047 64.2732C132.297 64.1839 132.565 64.1392 132.851 64.1392C133.333 64.1392 133.726 64.166 134.03 64.2196C134.343 64.2732 134.642 64.3491 134.928 64.4474C134.892 64.7333 134.848 65.0236 134.794 65.3184C134.749 65.6043 134.682 65.8991 134.593 66.2028H134.258L133.749 64.836C133.642 64.7913 133.521 64.7645 133.387 64.7556C133.253 64.7377 133.114 64.7288 132.972 64.7288C132.811 64.7288 132.668 64.7601 132.543 64.8226C132.427 64.8762 132.324 64.9477 132.235 65.037C132.154 65.1263 132.092 65.2291 132.047 65.3452C132.002 65.4613 131.98 65.5775 131.98 65.6936C131.98 65.9348 132.056 66.1447 132.208 66.3234C132.369 66.4931 132.57 66.6539 132.811 66.8058C133.052 66.9487 133.307 67.0917 133.575 67.2346C133.851 67.3775 134.111 67.5383 134.352 67.717C134.593 67.8957 134.789 68.1056 134.941 68.3468C135.102 68.5791 135.183 68.8605 135.183 69.191C135.183 69.4947 135.116 69.7672 134.982 70.0084C134.856 70.2496 134.678 70.4551 134.446 70.6248C134.222 70.7945 133.959 70.9241 133.655 71.0134C133.36 71.1117 133.043 71.1608 132.704 71.1608C132.319 71.1608 131.967 71.1251 131.645 71.0536C131.323 70.9911 130.988 70.8973 130.64 70.7722C130.658 70.4506 130.698 70.1424 130.761 69.8476C130.823 69.5439 130.903 69.2535 131.002 68.9766H131.337L131.926 70.4372C132.025 70.5087 132.141 70.5489 132.275 70.5578C132.418 70.5667 132.547 70.5712 132.663 70.5712C133.056 70.5712 133.374 70.464 133.615 70.2496C133.856 70.0352 133.977 69.7761 133.977 69.4724Z" fill="#8F8F8F"/>
</svg>
