<svg width="367" height="200" viewBox="0 0 367 200" fill="none" xmlns="http://www.w3.org/2000/svg">
<path d="M350.813 179.432V192.025H348.479V171.876H350.748V175.038H350.958C351.43 174.006 352.164 173.179 353.161 172.559C354.167 171.929 355.408 171.614 356.886 171.614C358.241 171.614 359.431 171.898 360.454 172.467C361.485 173.026 362.285 173.853 362.854 174.946C363.431 176.039 363.72 177.381 363.72 178.973V192.025H361.385V179.117C361.385 177.464 360.921 176.157 359.995 175.195C359.076 174.233 357.844 173.752 356.296 173.752C355.238 173.752 354.298 173.98 353.476 174.434C352.654 174.889 352.003 175.545 351.522 176.402C351.049 177.25 350.813 178.26 350.813 179.432Z" fill="#3D3D3D"/>
<path d="M334.487 192.444C332.747 192.444 331.208 192.003 329.87 191.12C328.541 190.236 327.501 189.016 326.749 187.46C325.997 185.894 325.621 184.089 325.621 182.042C325.621 179.979 325.997 178.164 326.749 176.599C327.501 175.025 328.541 173.8 329.87 172.926C331.208 172.043 332.747 171.601 334.487 171.601C336.227 171.601 337.762 172.043 339.091 172.926C340.42 173.809 341.46 175.033 342.212 176.599C342.973 178.164 343.354 179.979 343.354 182.042C343.354 184.089 342.978 185.894 342.226 187.46C341.474 189.016 340.429 190.236 339.091 191.12C337.762 192.003 336.227 192.444 334.487 192.444ZM334.487 190.306C335.886 190.306 337.071 189.93 338.041 189.178C339.012 188.426 339.747 187.425 340.245 186.174C340.752 184.924 341.006 183.546 341.006 182.042C341.006 180.538 340.752 179.157 340.245 177.897C339.747 176.638 339.012 175.628 338.041 174.867C337.071 174.106 335.886 173.726 334.487 173.726C333.097 173.726 331.912 174.106 330.933 174.867C329.962 175.628 329.223 176.638 328.716 177.897C328.218 179.157 327.968 180.538 327.968 182.042C327.968 183.546 328.218 184.924 328.716 186.174C329.223 187.425 329.962 188.426 330.933 189.178C331.903 189.93 333.088 190.306 334.487 190.306Z" fill="#3D3D3D"/>
<path d="M318.135 192.025V171.876H320.482V192.025H318.135ZM319.328 168.413C318.847 168.413 318.436 168.252 318.095 167.928C317.754 167.596 317.584 167.198 317.584 166.734C317.584 166.271 317.754 165.877 318.095 165.554C318.436 165.222 318.847 165.055 319.328 165.055C319.809 165.055 320.22 165.222 320.561 165.554C320.902 165.877 321.073 166.271 321.073 166.734C321.073 167.198 320.902 167.596 320.561 167.928C320.22 168.252 319.809 168.413 319.328 168.413Z" fill="#3D3D3D"/>
<path d="M312.806 171.876V173.91H303.192V171.876H312.806ZM306.196 167.049H308.543V186.765C308.543 187.604 308.688 188.264 308.976 188.745C309.265 189.218 309.641 189.554 310.104 189.755C310.568 189.948 311.062 190.044 311.586 190.044C311.892 190.044 312.155 190.026 312.373 189.991C312.592 189.948 312.784 189.904 312.95 189.86L313.449 191.972C313.222 192.06 312.942 192.138 312.609 192.208C312.277 192.287 311.866 192.326 311.376 192.326C310.52 192.326 309.693 192.138 308.898 191.762C308.111 191.386 307.464 190.827 306.956 190.083C306.449 189.34 306.196 188.417 306.196 187.316V167.049Z" fill="#3D3D3D"/>
<path d="M289.938 192.484C288.723 192.484 287.612 192.248 286.607 191.775C285.601 191.294 284.801 190.604 284.207 189.703C283.612 188.793 283.315 187.692 283.315 186.397C283.315 185.4 283.503 184.561 283.879 183.879C284.255 183.197 284.788 182.637 285.479 182.2C286.17 181.763 286.987 181.417 287.932 181.163C288.876 180.91 289.916 180.713 291.053 180.573C292.181 180.433 293.134 180.311 293.912 180.206C294.699 180.101 295.298 179.935 295.709 179.707C296.12 179.48 296.326 179.113 296.326 178.606V178.133C296.326 176.76 295.915 175.68 295.093 174.893C294.28 174.098 293.108 173.7 291.578 173.7C290.126 173.7 288.941 174.019 288.023 174.657C287.114 175.296 286.476 176.048 286.108 176.913L283.892 176.113C284.346 175.011 284.976 174.133 285.78 173.477C286.585 172.812 287.486 172.336 288.482 172.047C289.479 171.75 290.489 171.601 291.512 171.601C292.282 171.601 293.082 171.702 293.912 171.903C294.752 172.104 295.53 172.454 296.247 172.952C296.964 173.442 297.546 174.128 297.992 175.011C298.438 175.886 298.66 176.997 298.66 178.343V192.025H296.326V188.837H296.182C295.902 189.432 295.486 190.009 294.936 190.569C294.385 191.128 293.694 191.587 292.863 191.946C292.032 192.304 291.058 192.484 289.938 192.484ZM290.253 190.346C291.495 190.346 292.57 190.07 293.48 189.519C294.389 188.968 295.089 188.238 295.578 187.329C296.077 186.41 296.326 185.4 296.326 184.299V181.387C296.151 181.553 295.858 181.701 295.447 181.832C295.045 181.964 294.577 182.082 294.044 182.187C293.519 182.283 292.994 182.366 292.47 182.436C291.945 182.506 291.473 182.567 291.053 182.62C289.916 182.759 288.946 182.978 288.141 183.275C287.337 183.573 286.72 183.984 286.292 184.508C285.864 185.024 285.649 185.689 285.649 186.502C285.649 187.727 286.086 188.675 286.961 189.349C287.835 190.013 288.933 190.346 290.253 190.346Z" fill="#3D3D3D"/>
<path d="M271.146 192.025V171.876H273.415V174.972H273.586C273.988 173.958 274.687 173.14 275.684 172.519C276.69 171.89 277.827 171.575 279.094 171.575C279.287 171.575 279.501 171.579 279.737 171.588C279.973 171.597 280.17 171.605 280.327 171.614V173.988C280.222 173.971 280.039 173.945 279.776 173.91C279.514 173.875 279.23 173.857 278.924 173.857C277.875 173.857 276.939 174.08 276.117 174.526C275.304 174.963 274.661 175.571 274.189 176.349C273.717 177.128 273.481 178.015 273.481 179.012V192.025H271.146Z" fill="#3D3D3D"/>
<path d="M257.83 192.444C255.95 192.444 254.324 192.007 252.951 191.133C251.578 190.249 250.516 189.03 249.764 187.473C249.02 185.908 248.649 184.106 248.649 182.069C248.649 180.04 249.02 178.238 249.764 176.664C250.516 175.081 251.552 173.844 252.872 172.952C254.201 172.051 255.736 171.601 257.476 171.601C258.569 171.601 259.623 171.802 260.637 172.204C261.651 172.598 262.561 173.206 263.365 174.028C264.178 174.841 264.821 175.868 265.293 177.11C265.765 178.343 266.001 179.804 266.001 181.491V182.646H250.262V180.586H263.614C263.614 179.292 263.352 178.129 262.827 177.097C262.311 176.056 261.59 175.234 260.663 174.631C259.745 174.028 258.683 173.726 257.476 173.726C256.199 173.726 255.076 174.067 254.105 174.749C253.134 175.431 252.374 176.332 251.823 177.451C251.281 178.571 251.005 179.795 250.997 181.124V182.357C250.997 183.957 251.272 185.357 251.823 186.555C252.382 187.744 253.174 188.667 254.197 189.322C255.22 189.978 256.431 190.306 257.83 190.306C258.783 190.306 259.618 190.158 260.335 189.86C261.061 189.563 261.669 189.165 262.158 188.667C262.657 188.159 263.033 187.604 263.286 187.001L265.503 187.722C265.197 188.57 264.694 189.353 263.995 190.07C263.304 190.787 262.438 191.364 261.398 191.802C260.366 192.23 259.177 192.444 257.83 192.444Z" fill="#3D3D3D"/>
<path d="M235.188 200C233.816 200 232.613 199.821 231.581 199.462C230.55 199.112 229.68 198.631 228.971 198.019C228.263 197.407 227.712 196.721 227.319 195.96L229.234 194.701C229.522 195.208 229.907 195.706 230.388 196.196C230.878 196.686 231.512 197.092 232.29 197.416C233.077 197.739 234.043 197.901 235.188 197.901C236.972 197.901 238.411 197.455 239.504 196.563C240.605 195.671 241.156 194.285 241.156 192.405V187.866H240.946C240.675 188.479 240.286 189.091 239.779 189.703C239.272 190.306 238.607 190.809 237.785 191.211C236.972 191.614 235.962 191.815 234.756 191.815C233.147 191.815 231.717 191.417 230.467 190.621C229.225 189.825 228.246 188.688 227.529 187.211C226.82 185.724 226.466 183.953 226.466 181.898C226.466 179.861 226.812 178.068 227.502 176.52C228.202 174.972 229.177 173.765 230.427 172.9C231.678 172.034 233.134 171.601 234.795 171.601C236.028 171.601 237.051 171.82 237.864 172.257C238.677 172.685 239.329 173.219 239.818 173.857C240.317 174.496 240.706 175.116 240.986 175.72H241.222V171.876H243.504V192.549C243.504 194.255 243.141 195.658 242.415 196.76C241.69 197.862 240.702 198.675 239.451 199.2C238.201 199.733 236.78 200 235.188 200ZM235.031 189.677C236.325 189.677 237.431 189.366 238.349 188.745C239.268 188.116 239.971 187.215 240.461 186.043C240.951 184.871 241.196 183.477 241.196 181.859C241.196 180.285 240.955 178.89 240.474 177.674C239.993 176.45 239.294 175.488 238.376 174.788C237.466 174.08 236.351 173.726 235.031 173.726C233.684 173.726 232.548 174.089 231.621 174.815C230.694 175.541 229.994 176.52 229.522 177.753C229.05 178.977 228.814 180.346 228.814 181.859C228.814 183.398 229.054 184.758 229.535 185.938C230.016 187.11 230.72 188.028 231.647 188.693C232.574 189.349 233.702 189.677 235.031 189.677Z" fill="#3D3D3D"/>
<path d="M213.006 200C211.633 200 210.431 199.821 209.399 199.462C208.367 199.112 207.497 198.631 206.789 198.019C206.08 197.407 205.53 196.721 205.136 195.96L207.051 194.701C207.34 195.208 207.724 195.706 208.205 196.196C208.695 196.686 209.329 197.092 210.107 197.416C210.894 197.739 211.86 197.901 213.006 197.901C214.789 197.901 216.228 197.455 217.321 196.563C218.423 195.671 218.974 194.285 218.974 192.405V187.866H218.764C218.493 188.479 218.104 189.091 217.596 189.703C217.089 190.306 216.425 190.809 215.603 191.211C214.789 191.614 213.78 191.815 212.573 191.815C210.964 191.815 209.534 191.417 208.284 190.621C207.042 189.825 206.063 188.688 205.346 187.211C204.638 185.724 204.284 183.953 204.284 181.898C204.284 179.861 204.629 178.068 205.32 176.52C206.019 174.972 206.994 173.765 208.245 172.9C209.495 172.034 210.951 171.601 212.612 171.601C213.845 171.601 214.868 171.82 215.681 172.257C216.495 172.685 217.146 173.219 217.636 173.857C218.134 174.496 218.523 175.116 218.803 175.72H219.039V171.876H221.321V192.549C221.321 194.255 220.958 195.658 220.233 196.76C219.507 197.862 218.519 198.675 217.268 199.2C216.018 199.733 214.597 200 213.006 200ZM212.848 189.677C214.142 189.677 215.249 189.366 216.167 188.745C217.085 188.116 217.789 187.215 218.278 186.043C218.768 184.871 219.013 183.477 219.013 181.859C219.013 180.285 218.772 178.89 218.292 177.674C217.811 176.45 217.111 175.488 216.193 174.788C215.284 174.08 214.169 173.726 212.848 173.726C211.502 173.726 210.365 174.089 209.438 174.815C208.511 175.541 207.812 176.52 207.34 177.753C206.867 178.977 206.631 180.346 206.631 181.859C206.631 183.398 206.872 184.758 207.353 185.938C207.834 187.11 208.537 188.028 209.464 188.693C210.391 189.349 211.519 189.677 212.848 189.677Z" fill="#3D3D3D"/>
<path d="M190.387 192.484C189.172 192.484 188.061 192.248 187.056 191.775C186.05 191.294 185.25 190.604 184.655 189.703C184.061 188.793 183.763 187.692 183.763 186.397C183.763 185.4 183.951 184.561 184.327 183.879C184.703 183.197 185.237 182.637 185.928 182.2C186.618 181.763 187.436 181.417 188.38 181.163C189.325 180.91 190.365 180.713 191.502 180.573C192.63 180.433 193.583 180.311 194.361 180.206C195.148 180.101 195.747 179.935 196.158 179.707C196.569 179.48 196.775 179.113 196.775 178.606V178.133C196.775 176.76 196.364 175.68 195.542 174.893C194.728 174.098 193.557 173.7 192.027 173.7C190.575 173.7 189.39 174.019 188.472 174.657C187.563 175.296 186.924 176.048 186.557 176.913L184.34 176.113C184.795 175.011 185.425 174.133 186.229 173.477C187.034 172.812 187.934 172.336 188.931 172.047C189.928 171.75 190.938 171.601 191.961 171.601C192.73 171.601 193.53 171.702 194.361 171.903C195.201 172.104 195.979 172.454 196.696 172.952C197.413 173.442 197.994 174.128 198.44 175.011C198.886 175.886 199.109 176.997 199.109 178.343V192.025H196.775V188.837H196.63C196.35 189.432 195.935 190.009 195.384 190.569C194.833 191.128 194.143 191.587 193.312 191.946C192.481 192.304 191.506 192.484 190.387 192.484ZM190.702 190.346C191.943 190.346 193.019 190.07 193.928 189.519C194.838 188.968 195.537 188.238 196.027 187.329C196.525 186.41 196.775 185.4 196.775 184.299V181.387C196.6 181.553 196.307 181.701 195.896 181.832C195.494 181.964 195.026 182.082 194.492 182.187C193.968 182.283 193.443 182.366 192.918 182.436C192.394 182.506 191.922 182.567 191.502 182.62C190.365 182.759 189.395 182.978 188.59 183.275C187.786 183.573 187.169 183.984 186.741 184.508C186.312 185.024 186.098 185.689 186.098 186.502C186.098 187.727 186.535 188.675 187.41 189.349C188.284 190.013 189.381 190.346 190.702 190.346Z" fill="#3D3D3D"/>
<path d="M166.762 171.876L171.956 180.468L177.15 171.876H179.865L173.385 181.951L179.865 192.025H177.15L171.956 183.708L166.762 192.025H164.06L170.46 181.951L164.06 171.876H166.762Z" fill="#3D3D3D"/>
<path d="M143.874 192.025V165.16H159.456V167.364H146.327V177.478H158.63V179.681H146.327V189.821H159.718V192.025H143.874Z" fill="#FF0000"/>
<path d="M127.699 171.876V173.91H118.085V171.876H127.699ZM121.088 167.049H123.436V186.765C123.436 187.604 123.58 188.264 123.869 188.745C124.157 189.218 124.533 189.554 124.997 189.755C125.46 189.948 125.954 190.044 126.479 190.044C126.785 190.044 127.047 190.026 127.266 189.991C127.484 189.948 127.677 189.904 127.843 189.86L128.341 191.972C128.114 192.06 127.834 192.138 127.502 192.208C127.17 192.287 126.759 192.326 126.269 192.326C125.412 192.326 124.586 192.138 123.79 191.762C123.003 191.386 122.356 190.827 121.849 190.083C121.342 189.34 121.088 188.417 121.088 187.316V167.049Z" fill="#3D3D3D"/>
<path d="M111.248 184.325V171.876H113.582V192.025H111.248V188.68H111.064C110.592 189.712 109.844 190.573 108.821 191.264C107.798 191.946 106.548 192.287 105.07 192.287C103.785 192.287 102.644 192.007 101.647 191.448C100.65 190.879 99.8674 190.048 99.299 188.955C98.7307 187.862 98.4465 186.52 98.4465 184.928V171.876H100.781V184.784C100.781 186.358 101.245 187.626 102.171 188.588C103.098 189.541 104.288 190.018 105.739 190.018C106.648 190.018 107.523 189.799 108.362 189.362C109.202 188.925 109.892 188.286 110.435 187.447C110.977 186.599 111.248 185.558 111.248 184.325Z" fill="#3D3D3D"/>
<path d="M84.4549 192.444C82.7148 192.444 81.1759 192.003 79.838 191.12C78.5089 190.236 77.4684 189.016 76.7164 187.46C75.9644 185.894 75.5884 184.089 75.5884 182.042C75.5884 179.979 75.9644 178.164 76.7164 176.599C77.4684 175.025 78.5089 173.8 79.838 172.926C81.1759 172.043 82.7148 171.601 84.4549 171.601C86.195 171.601 87.7295 172.043 89.0586 172.926C90.3877 173.809 91.4283 175.033 92.1803 176.599C92.941 178.164 93.3214 179.979 93.3214 182.042C93.3214 184.089 92.9454 185.894 92.1934 187.46C91.4414 189.016 90.3965 190.236 89.0586 191.12C87.7295 192.003 86.195 192.444 84.4549 192.444ZM84.4549 190.306C85.8539 190.306 87.0388 189.93 88.0094 189.178C88.9799 188.426 89.7144 187.425 90.2129 186.174C90.72 184.924 90.9736 183.546 90.9736 182.042C90.9736 180.538 90.72 179.157 90.2129 177.897C89.7144 176.638 88.9799 175.628 88.0094 174.867C87.0388 174.106 85.8539 173.726 84.4549 173.726C83.0646 173.726 81.8798 174.106 80.9004 174.867C79.9298 175.628 79.191 176.638 78.6838 177.897C78.1854 179.157 77.9362 180.538 77.9362 182.042C77.9362 183.546 78.1854 184.924 78.6838 186.174C79.191 187.425 79.9298 188.426 80.9004 189.178C81.871 189.93 83.0558 190.306 84.4549 190.306Z" fill="#3D3D3D"/>
<path d="M57.4259 179.432V192.025H55.0912V165.16H57.4259V175.038H57.6358C58.1079 173.997 58.8381 173.166 59.8262 172.545C60.823 171.925 62.0821 171.614 63.6036 171.614C64.9677 171.614 66.1656 171.894 67.1974 172.454C68.2292 173.013 69.0337 173.84 69.6108 174.933C70.1879 176.026 70.4764 177.373 70.4764 178.973V192.025H68.1286V179.117C68.1286 177.456 67.6652 176.148 66.7383 175.195C65.8202 174.233 64.5785 173.752 63.0134 173.752C61.9378 173.752 60.9804 173.98 60.1409 174.434C59.3015 174.889 58.637 175.545 58.1473 176.402C57.6664 177.25 57.4259 178.26 57.4259 179.432Z" fill="#3D3D3D"/>
<path d="M49.3562 171.876V173.91H39.7421V171.876H49.3562ZM42.7457 167.049H45.0935V186.765C45.0935 187.604 45.2378 188.264 45.5263 188.745C45.8149 189.218 46.1909 189.554 46.6543 189.755C47.1177 189.948 47.6118 190.044 48.1364 190.044C48.4424 190.044 48.7048 190.026 48.9234 189.991C49.142 189.948 49.3343 189.904 49.5005 189.86L49.9989 191.972C49.7715 192.06 49.4917 192.138 49.1595 192.208C48.8272 192.287 48.4162 192.326 47.9265 192.326C47.0696 192.326 46.2433 192.138 45.4476 191.762C44.6606 191.386 44.0136 190.827 43.5064 190.083C42.9993 189.34 42.7457 188.417 42.7457 187.316V167.049Z" fill="#3D3D3D"/>
<path d="M32.8988 192.025V171.876H35.2466V192.025H32.8988ZM34.0924 168.413C33.6114 168.413 33.2005 168.252 32.8594 167.928C32.5184 167.596 32.3479 167.198 32.3479 166.734C32.3479 166.271 32.5184 165.877 32.8594 165.554C33.2005 165.222 33.6114 165.055 34.0924 165.055C34.5733 165.055 34.9842 165.222 35.3253 165.554C35.6663 165.877 35.8368 166.271 35.8368 166.734C35.8368 167.198 35.6663 167.596 35.3253 167.928C34.9842 168.252 34.5733 168.413 34.0924 168.413Z" fill="#3D3D3D"/>
<path d="M7.62405 192.025L1.53818 171.876H4.00401L8.77827 188.496H8.94878L13.7099 171.876H16.1889L20.9107 188.457H21.0943L25.8685 171.876H28.3344L22.2485 192.025H19.8351L15.0609 175.51H14.8117L10.0374 192.025H7.62405Z" fill="#3D3D3D"/>
<path d="M168.876 134.365H86.8102V150.988H168.876V134.365Z" fill="#FF0000"/>
<path d="M328.401 0C334.834 1.11665e-05 340.903 0.849603 346.608 2.54909C352.434 4.24858 357.472 6.555 361.72 9.4684L360.628 31.3195H358.807L351.342 17.6625C349.279 13.4138 347.215 10.4399 345.151 8.74045C343.088 6.91957 340.721 5.64492 338.051 4.91657C336.473 4.431 335.016 4.12739 333.681 4.006C332.346 3.76324 330.646 3.64178 328.583 3.64177C322.393 3.64177 317.173 5.46289 312.925 9.10468C308.677 12.6251 306.553 17.4201 306.553 23.4897C306.553 29.6806 308.191 34.6578 311.468 38.421C314.745 42.0627 319.54 45.3402 325.852 48.2536L334.227 51.8954C345.88 56.9939 354.255 62.4567 359.353 68.2836C364.451 73.989 367 81.3941 367 90.4985C367 101.181 362.934 109.921 354.802 116.719C346.79 123.396 335.38 126.734 320.572 126.734C313.896 126.734 307.098 125.884 300.18 124.185C293.261 122.607 287.495 120.482 282.883 117.811L283.793 93.0475H285.614L291.258 104.883C292.958 108.282 294.778 111.317 296.72 113.988C298.662 116.537 301.333 118.54 304.732 119.997C307.159 121.211 309.465 122.06 311.65 122.546C313.956 122.91 316.506 123.092 319.297 123.092C326.702 123.092 332.528 121.089 336.777 117.084C341.146 113.078 343.331 107.918 343.331 101.606C343.331 95.6577 341.874 91.0448 338.961 87.7673C336.048 84.3683 331.375 81.0903 324.942 77.9341L317.477 74.6566C307.038 70.0436 298.844 64.7629 292.897 58.8147C287.071 52.7451 284.158 44.7333 284.158 34.7792C284.158 27.6171 285.978 21.426 289.62 16.2061C293.382 10.9862 298.541 6.98015 305.096 4.18811C311.772 1.39608 319.54 0 328.401 0ZM92.6746 85.764V17.1162C92.6745 14.6884 92.25 12.5033 91.4004 10.5611C90.6721 8.61882 89.094 7.34417 86.6664 6.7372L80.6577 5.09868V3.27754H106.694V5.09868L101.778 6.7372C99.5936 7.46554 98.2583 8.74025 97.7728 10.5611C97.2872 12.3819 97.0444 14.5063 97.0444 16.9341V124.003H86.8485L17.2967 28.4057V109.982C17.2967 112.41 17.661 114.474 18.3892 116.173C19.1175 117.872 20.6349 119.086 22.9411 119.815L28.403 121.635V123.457H0.728387V121.635L6.73657 119.815C8.92141 119.208 10.4995 118.055 11.4706 116.355C12.4416 114.534 12.9273 112.41 12.9273 109.982V22.397C11.5922 19.4835 10.4993 17.2986 9.64961 15.8419C8.92133 14.3852 8.07179 13.1712 7.10076 12.2001C6.12971 11.1076 4.79448 9.77222 3.09514 8.19411L0 5.09868V3.27754H32.2266L92.6746 85.764ZM162.285 5.09868L158.461 6.55509C155.669 7.64761 153.788 8.98301 152.817 10.5611C151.846 12.1391 151.785 14.3242 152.635 17.1162L172.481 92.8654L193.965 29.3163L189.777 16.3882C188.928 13.839 188.139 11.8964 187.411 10.5611C186.682 9.2258 185.468 8.13328 183.769 7.28354L179.763 5.09868V3.27754H225.464V5.09868L219.819 7.28354C217.392 8.13329 215.996 9.40794 215.631 11.1074C215.389 12.6855 215.692 14.7491 216.542 17.2983L239.665 94.6866L261.514 18.7552C262.363 15.8418 262.667 13.2925 262.424 11.1074C262.181 8.92236 260.664 7.34411 257.872 6.37297L254.049 5.09868V3.27754H279.357V5.09868L274.623 6.91931C272.195 7.76906 270.496 9.1045 269.525 10.9253C268.554 12.7462 267.704 14.9919 266.976 17.6625L236.752 124.003H224.189L196.878 38.421L168.839 124.003H156.276L124.049 15.6598C123.2 12.8677 122.289 10.8644 121.318 9.65052C120.347 8.31529 118.648 7.10121 116.22 6.00875L114.035 5.09868V3.27754H162.285V5.09868Z" fill="black"/>
</svg>
