<svg width="32" height="32" viewBox="0 0 32 32" fill="none" xmlns="http://www.w3.org/2000/svg">
<rect width="32" height="32" rx="4" fill="white"/>
<path d="M14.8843 19.789H8.62312V21H14.8843V19.789Z" fill="#FF0000"/>
<path d="M27.0551 10C27.5459 10 28.009 10.0619 28.4442 10.1857C28.8887 10.3095 29.2731 10.4776 29.5972 10.6898L29.5138 12.2817H29.3749L28.8054 11.2868C28.648 10.9772 28.4905 10.7606 28.3331 10.6368C28.1756 10.5041 27.9951 10.4113 27.7913 10.3582C27.6709 10.3228 27.5598 10.3007 27.4579 10.2919C27.3561 10.2742 27.2264 10.2653 27.069 10.2653C26.5967 10.2653 26.1985 10.398 25.8744 10.6633C25.5503 10.9198 25.3882 11.2691 25.3882 11.7113C25.3882 12.1623 25.5132 12.5249 25.7632 12.7991C26.0133 13.0644 26.3791 13.3032 26.8606 13.5154L27.4996 13.7808C28.3886 14.1522 29.0277 14.5502 29.4166 14.9747C29.8056 15.3904 30 15.9299 30 16.5931C30 17.3714 29.6898 18.0082 29.0693 18.5034C28.4581 18.9898 27.5876 19.233 26.4578 19.233C25.9485 19.233 25.4298 19.1711 24.902 19.0473C24.3741 18.9324 23.9343 18.7776 23.5824 18.583L23.6518 16.7789H23.7907L24.2214 17.6411C24.351 17.8888 24.4899 18.1098 24.6381 18.3044C24.7862 18.4901 24.99 18.6361 25.2493 18.7422C25.4345 18.8306 25.6104 18.8925 25.7771 18.9279C25.9531 18.9544 26.1476 18.9677 26.3606 18.9677C26.9255 18.9677 27.37 18.8218 27.6941 18.53C28.0275 18.2381 28.1942 17.8622 28.1942 17.4024C28.1942 16.969 28.083 16.6329 27.8608 16.3942C27.6385 16.1465 27.282 15.9077 26.7912 15.6778L26.2217 15.439C25.4252 15.1029 24.8001 14.7182 24.3463 14.2849C23.9018 13.8427 23.6796 13.259 23.6796 12.5338C23.6796 12.012 23.8185 11.561 24.0963 11.1807C24.3834 10.8004 24.777 10.5085 25.2771 10.3051C25.7864 10.1017 26.3791 10 27.0551 10ZM9.07054 16.2482V11.247C9.07054 11.0701 9.03815 10.9109 8.97333 10.7694C8.91776 10.6279 8.79736 10.535 8.61215 10.4908L8.15372 10.3715V10.2388H10.1401V10.3715L9.76511 10.4908C9.59842 10.5439 9.49655 10.6368 9.4595 10.7694C9.42246 10.9021 9.40393 11.0568 9.40393 11.2337V19.0341H8.62604L3.31964 12.0695V18.0126C3.31964 18.1895 3.34743 18.3398 3.40299 18.4636C3.45856 18.5874 3.57433 18.6759 3.75028 18.7289L4.16699 18.8616V18.9943H2.05557V18.8616L2.51396 18.7289C2.68065 18.6847 2.80105 18.6007 2.87514 18.4769C2.94922 18.3442 2.98628 18.1895 2.98628 18.0126V11.6317C2.88441 11.4194 2.80103 11.2603 2.73621 11.1541C2.68065 11.048 2.61583 10.9596 2.54175 10.8888C2.46766 10.8092 2.36579 10.7119 2.23614 10.597L2 10.3715V10.2388H4.4587L9.07054 16.2482ZM14.3814 10.3715L14.0897 10.4776C13.8767 10.5572 13.7331 10.6544 13.659 10.7694C13.585 10.8844 13.5803 11.0436 13.6451 11.247L15.1593 16.7656L16.7984 12.1358L16.4789 11.1939C16.4141 11.0082 16.3539 10.8667 16.2984 10.7694C16.2428 10.6721 16.1502 10.5925 16.0205 10.5306L15.7149 10.3715V10.2388H19.2016V10.3715L18.7709 10.5306C18.5857 10.5925 18.4792 10.6854 18.4514 10.8092C18.4329 10.9242 18.4561 11.0745 18.5209 11.2602L20.2851 16.8983L21.952 11.3664C22.0168 11.1541 22.04 10.9684 22.0215 10.8092C22.0029 10.65 21.8872 10.535 21.6742 10.4643L21.3825 10.3715V10.2388H23.3133V10.3715L22.9521 10.5041C22.7669 10.566 22.6373 10.6633 22.5632 10.7959C22.4891 10.9286 22.4243 11.0922 22.3687 11.2868L20.0628 19.0341H19.1043L17.0207 12.7991L14.8815 19.0341H13.923L11.4643 11.1409C11.3994 10.9375 11.33 10.7915 11.2559 10.7031C11.1818 10.6058 11.0521 10.5173 10.8669 10.4378L10.7002 10.3715V10.2388H14.3814V10.3715Z" fill="black"/>
</svg>
