<svg preserveAspectRatio="none" overflow="visible" style="display: block;" width="175" height="72" viewBox="0 0 175 72" fill="none" xmlns="http://www.w3.org/2000/svg">
<g id="Logo_Dark-No-Tagline">
<g id="Vector">
<path d="M80.5269 64.0734H41.3945V72H80.5269V64.0734Z" fill="#FF0000"/>
<path d="M156.595 0C159.662 5.32485e-06 162.556 0.405142 165.276 1.21556C168.055 2.02598 170.457 3.12582 172.482 4.5151L171.961 14.935H171.093L167.534 8.42255C166.55 6.3965 165.566 4.9784 164.582 4.16797C163.598 3.29966 162.469 2.69184 161.196 2.34452C160.443 2.11297 159.749 1.96819 159.112 1.9103C158.475 1.79454 157.665 1.73662 156.681 1.73662C153.729 1.73662 151.241 2.60504 149.215 4.34166C147.189 6.02039 146.176 8.30693 146.176 11.2013C146.176 14.1535 146.957 16.5269 148.52 18.3214C150.083 20.058 152.369 21.6209 155.379 23.0102L159.373 24.7468C164.929 27.1781 168.923 29.7831 171.354 32.5617C173.785 35.2824 175 38.8136 175 43.1551C175 48.2492 173.061 52.4171 169.183 55.6588C165.363 58.8426 159.923 60.4344 152.861 60.4344C149.678 60.4344 146.437 60.0293 143.137 59.2189C139.838 58.4663 137.089 57.4531 134.89 56.1796L135.324 44.3707H136.192L138.883 50.0147C139.694 51.6355 140.562 53.0827 141.488 54.3561C142.414 55.5718 143.687 56.5271 145.308 57.2217C146.466 57.8006 147.565 58.2057 148.607 58.4373C149.707 58.6109 150.922 58.6978 152.253 58.6978C155.784 58.6978 158.562 57.7427 160.588 55.8325C162.672 53.9222 163.714 51.4619 163.714 48.4518C163.714 45.6154 163.019 43.4157 161.63 41.8527C160.241 40.2319 158.013 38.6687 154.945 37.1637L151.385 35.6007C146.408 33.401 142.501 30.8829 139.665 28.0464C136.887 25.152 135.498 21.3315 135.498 16.5848C135.498 13.1695 136.366 10.2172 138.102 7.72805C139.896 5.23889 142.356 3.32855 145.482 1.99714C148.665 0.665734 152.369 0 156.595 0ZM44.1909 40.8974V8.16202C44.1909 7.00431 43.9884 5.96233 43.5833 5.03616C43.236 4.10997 42.4835 3.50214 41.3259 3.2127L38.4608 2.43136V1.56293H50.8759V2.43136L48.5319 3.2127C47.4901 3.56002 46.8534 4.16788 46.6219 5.03616C46.3904 5.90444 46.2746 6.91748 46.2746 8.07518V59.132H41.4128L8.24772 13.5456V52.4461C8.24773 53.6038 8.42144 54.5879 8.76871 55.3983C9.11599 56.2087 9.83954 56.7875 10.9392 57.1349L13.5437 58.0031V58.8715H0.347323V58.0031L3.21226 57.1349C4.25408 56.8454 5.00658 56.2955 5.46962 55.4851C5.93264 54.6168 6.16425 53.6038 6.16427 52.4461V10.6802C5.52759 9.29092 5.00647 8.24901 4.60131 7.55436C4.25404 6.85972 3.84895 6.28084 3.38592 5.81775C2.92289 5.29676 2.28619 4.65998 1.47588 3.90745L0 2.43136V1.56293H15.3669L44.1909 40.8974ZM77.3837 2.43136L75.5605 3.12586C74.2293 3.64684 73.332 4.28364 72.869 5.03616C72.406 5.78868 72.377 6.83066 72.7822 8.16202L82.2455 44.2838L92.4901 13.9798L90.4932 7.81489C90.0881 6.59925 89.712 5.67292 89.3647 5.03616C89.0174 4.39941 88.4386 3.87844 87.6283 3.47323L85.7183 2.43136V1.56293H107.51V2.43136L104.818 3.47323C103.661 3.87844 102.995 4.48627 102.822 5.29669C102.706 6.04921 102.851 7.03327 103.256 8.24886L114.282 45.1522L124.7 8.94361C125.105 7.55431 125.25 6.33866 125.134 5.29669C125.018 4.25472 124.295 3.50211 122.964 3.03902L121.14 2.43136V1.56293H133.208V2.43136L130.951 3.29955C129.793 3.70475 128.983 4.34157 128.52 5.20985C128.057 6.07815 127.652 7.14904 127.304 8.42255L112.893 59.132H106.902L93.8792 18.3214L80.5092 59.132H74.5185L59.1517 7.46752C58.7465 6.13611 58.3122 5.18082 57.8492 4.60195C57.3861 3.96523 56.5759 3.38628 55.4184 2.86533L54.3764 2.43136V1.56293H77.3837V2.43136Z" fill="black"/>
</g>
</g>
</svg>
